<?xml version="1.0" encoding="UTF-8"?>
<svg id="Layer_1" data-name="Layer 1" xmlns="http://www.w3.org/2000/svg" viewBox="0 0 548.8 398.29">
  <defs>
    <style>
      .cls-1 {
        fill: #fff;
        stroke-width: 0px;
      }
    </style>
  </defs>
  <path class="cls-1" d="m37.53,75.14h410.77c18.91,0,37.86.31,56.77,0,.27,0,.54,0,.81,0,19.62,0,38.41-17.25,37.5-37.5-.91-20.32-16.48-37.5-37.5-37.5H95.11C76.2.14,57.25-.17,38.34.14c-.27,0-.54,0-.81,0C17.92.14-.88,17.38.03,37.64s16.48,37.5,37.5,37.5h0Z"/>
  <path class="cls-1" d="m42.93,236.65h410.77c18.91,0,37.86.31,56.77,0,.27,0,.54,0,.81,0,19.62,0,38.41-17.25,37.5-37.5s-16.48-37.5-37.5-37.5H100.51c-18.91,0-37.86-.31-56.77,0-.27,0-.54,0-.81,0-19.62,0-38.41,17.25-37.5,37.5s16.48,37.5,37.5,37.5h0Z"/>
  <path class="cls-1" d="m37.53,398.16h410.77c18.91,0,37.86.31,56.77,0,.27,0,.54,0,.81,0,19.62,0,38.41-17.25,37.5-37.5-.91-20.32-16.48-37.5-37.5-37.5H95.11c-18.91,0-37.86-.31-56.77,0-.27,0-.54,0-.81,0-19.62,0-38.41,17.25-37.5,37.5.91,20.32,16.48,37.5,37.5,37.5h0Z"/>
</svg>